<?xml version="1.0" standalone="no"?>
<!DOCTYPE svg PUBLIC "-//W3C//DTD SVG 20010904//EN"
 "http://www.w3.org/TR/2001/REC-SVG-20010904/DTD/svg10.dtd">
<svg version="1.0" xmlns="http://www.w3.org/2000/svg"
 width="1320.000000pt" height="1320.000000pt" viewBox="0 0 1320.000000 1320.000000"
 preserveAspectRatio="xMidYMid meet">
<metadata>
Created by potrace 1.11, written by Peter Selinger 2001-2013
</metadata>
<g transform="translate(0.000000,1320.000000) scale(0.100000,-0.100000)"
fill="#000000" stroke="none">
<path d="M0 10708 l0 -2483 2480 2480 c1364 1364 2480 2481 2480 2482 0 2
-1116 3 -2480 3 l-2480 0 0 -2482z"/>
<path d="M6415 12490 l700 -700 -1085 -1085 c-596 -596 -1082 -1086 -1080
-1088 3 -2 911 66 2019 151 l2014 154 1175 -1175 c647 -647 1174 -1178 1171
-1181 -5 -5 -1131 -27 -3249 -62 -547 -9 -998 -19 -1002 -23 -6 -6 -938 -3858
-938 -3877 0 -5 18 30 40 78 231 508 678 1034 1188 1397 321 228 678 390 1047
475 394 90 863 88 1265 -8 519 -122 1019 -399 1515 -836 139 -123 449 -439
579 -590 359 -418 614 -823 750 -1193 111 -302 177 -712 161 -1002 -37 -663
-279 -1236 -782 -1848 l-64 -77 681 0 680 0 0 6595 0 6595 -3742 0 -3743 0
700 -700z"/>
<path d="M3555 7458 l-790 -19 -702 -702 -703 -702 -680 680 -680 680 0 -3698
0 -3697 3603 0 3602 0 -129 132 c-641 661 -977 1193 -1100 1744 -49 215 -60
324 -61 572 0 127 -1 229 -2 225 -1 -5 -53 -217 -114 -473 -61 -256 -114 -468
-118 -472 -4 -4 -498 484 -1098 1085 l-1091 1092 574 1779 c316 979 574 1783
574 1788 0 11 -147 9 -1085 -14z"/>
<path d="M9589 3785 c-187 -35 -422 -153 -643 -323 l-58 -45 783 -783 c431
-431 787 -784 790 -784 3 0 31 33 61 73 139 181 252 383 302 538 71 221 59
468 -34 675 -100 222 -330 461 -543 564 -150 72 -240 92 -422 96 -110 2 -184
-1 -236 -11z"/>
<path d="M8062 2583 c-162 -221 -265 -434 -297 -620 -85 -486 179 -966 660
-1203 66 -33 161 -72 210 -87 87 -26 98 -27 328 -28 l238 -1 266 -322 267
-322 521 0 520 0 -1325 1325 c-729 729 -1328 1325 -1332 1325 -3 0 -29 -30
-56 -67z"/>
</g>
</svg>
